<svg width="95" height="95" viewBox="0 0 95 95" fill="none" xmlns="http://www.w3.org/2000/svg">
<path d="M47.5 0.625C21.6523 0.625 0.625 21.6523 0.625 47.5C0.625 73.3477 21.6523 94.375 47.5 94.375C73.3477 94.375 94.375 73.3477 94.375 47.5C94.375 21.6523 73.3477 0.625 47.5 0.625ZM47.5 8.4375C69.1211 8.4375 86.5625 25.8789 86.5625 47.5C86.5625 69.1211 69.1211 86.5625 47.5 86.5625C25.8789 86.5625 8.4375 69.1211 8.4375 47.5C8.4375 25.8789 25.8789 8.4375 47.5 8.4375ZM29.9219 31.875C28.3679 31.875 26.8775 32.4923 25.7787 33.5912C24.6798 34.69 24.0625 36.1804 24.0625 37.7344C24.0625 39.2884 24.6798 40.7787 25.7787 41.8776C26.8775 42.9764 28.3679 43.5938 29.9219 43.5938C31.4759 43.5938 32.9662 42.9764 34.0651 41.8776C35.1639 40.7787 35.7812 39.2884 35.7812 37.7344C35.7812 36.1804 35.1639 34.69 34.0651 33.5912C32.9662 32.4923 31.4759 31.875 29.9219 31.875ZM65.0781 31.875C63.5241 31.875 62.0338 32.4923 60.9349 33.5912C59.8361 34.69 59.2188 36.1804 59.2188 37.7344C59.2188 39.2884 59.8361 40.7787 60.9349 41.8776C62.0338 42.9764 63.5241 43.5938 65.0781 43.5938C66.6321 43.5938 68.1225 42.9764 69.2213 41.8776C70.3202 40.7787 70.9375 39.2884 70.9375 37.7344C70.9375 36.1804 70.3202 34.69 69.2213 33.5912C68.1225 32.4923 66.6321 31.875 65.0781 31.875ZM27.2344 59.2188L20.5234 63.125C25.9258 72.4492 35.9648 78.75 47.5 78.75C59.0352 78.75 69.0742 72.4492 74.4766 63.125L67.7656 59.2188C65.7173 62.7824 62.765 65.7424 59.2068 67.8C55.6485 69.8576 51.6103 70.9398 47.5 70.9375C43.3897 70.9398 39.3515 69.8576 35.7933 67.8C32.235 65.7424 29.2827 62.7824 27.2344 59.2188Z" fill="#7D886E"/>
</svg>
