<svg width="89" height="91" viewBox="0 0 89 91" fill="none" xmlns="http://www.w3.org/2000/svg">
<path d="M67.7552 19.5299L54.377 0.773315L5.18575 40.0707L2.45875 40.0413V40.0834H0.3125V90.5834H88.6875V40.0834H84.6391L76.5843 16.5209L67.7552 19.5299ZM75.7469 40.0834H33.5457L64.9778 29.3689L71.3828 27.3195L75.7469 40.0834ZM59.4396 22.3663L26.9933 33.4258L52.6894 12.8975L59.4396 22.3663ZM8.72917 74.4612V56.1971C10.5058 55.57 12.1196 54.5533 13.4522 53.2214C14.7848 51.8896 15.8024 50.2763 16.4304 48.5H72.5696C73.1971 50.2771 74.2144 51.8912 75.5471 53.2238C76.8797 54.5564 78.4937 55.5738 80.2708 56.2013V74.4654C78.4937 75.0929 76.8797 76.1103 75.5471 77.4429C74.2144 78.7755 73.1971 80.3896 72.5696 82.1667H16.4388C15.8084 80.3894 14.789 78.7754 13.4552 77.4423C12.1214 76.1092 10.5068 75.0907 8.72917 74.4612Z" fill="#7D886E"/>
</svg>
