<svg width="95" height="95" viewBox="0 0 95 95" fill="none" xmlns="http://www.w3.org/2000/svg">
<path d="M32.5773 4.25833C31.3427 4.69795 30.1383 5.18575 28.9639 5.72172M17.4691 13.1381C16.4455 14.0327 15.4629 14.9732 14.5242 15.9565M6.66071 27.1352C5.8176 28.8214 5.08439 30.5633 4.4611 32.3609M2.07179 44.4204C1.97242 46.1774 1.97694 47.9705 2.08082 49.7275M4.56498 61.9179C5.1672 63.6041 5.86578 65.2452 6.66071 66.8411M14.1538 77.6223C15.2559 78.8057 16.4197 79.9288 17.6452 80.9917M28.0877 87.8435C29.8794 88.7082 31.7262 89.4536 33.6161 90.0747M47.1661 92.3331C72.1115 92.3331 92.3326 72.112 92.3326 47.1665C92.3326 22.2211 72.1115 2 47.1661 2" stroke="black" stroke-width="3.5" stroke-linecap="round" stroke-linejoin="round"/>
<path d="M47.166 53.9415C48.9629 53.9415 50.6861 53.2277 51.9567 51.9571C53.2272 50.6866 53.941 48.9633 53.941 47.1665C53.941 45.3697 53.2272 43.6464 51.9567 42.3759C50.6861 41.1053 48.9629 40.3915 47.166 40.3915M47.166 53.9415C45.3692 53.9415 43.646 53.2277 42.3754 51.9571C41.1048 50.6866 40.3911 48.9633 40.3911 47.1665C40.3911 45.3697 41.1048 43.6464 42.3754 42.3759C43.646 41.1053 45.3692 40.3915 47.166 40.3915M47.166 53.9415V65.2331M47.166 40.3915V20.0666" stroke="black" stroke-width="3.5" stroke-linecap="round" stroke-linejoin="round"/>
</svg>
