<svg width="95" height="95" viewBox="0 0 95 95" fill="none" xmlns="http://www.w3.org/2000/svg">
<path d="M32.5773 4.25833C31.3427 4.69795 30.1383 5.18575 28.964 5.72172M17.4691 13.1381C16.4455 14.0327 15.4629 14.9732 14.5242 15.9565M6.66072 27.1352C5.81761 28.8214 5.08441 30.5633 4.46111 32.3609M2.0718 44.4204C1.97244 46.1774 1.97695 47.9705 2.08083 49.7275M4.56499 61.9179C5.16722 63.6041 5.86579 65.2452 6.66072 66.8411M14.1538 77.6223C15.2559 78.8057 16.4197 79.9288 17.6452 80.9917M28.0877 87.8435C29.8794 88.7082 31.7262 89.4536 33.6161 90.0747M47.1661 92.3331C72.1115 92.3331 92.3326 72.112 92.3326 47.1665C92.3326 22.2211 72.1115 2 47.1661 2" stroke="black" stroke-width="3.5" stroke-linecap="round" stroke-linejoin="round"/>
<path d="M61.7553 90.0747C62.9899 89.6351 64.1943 89.1473 65.3686 88.6113M76.8635 81.195C77.8871 80.3003 78.8697 79.3599 79.8084 78.3766M87.6719 67.1979C88.515 65.5117 89.2482 63.7698 89.8715 61.9721M92.2608 49.9127C92.3602 48.1557 92.3556 46.3626 92.2518 44.6056M89.7676 32.4151C89.1654 30.7289 88.4668 29.0879 87.6719 27.492M80.1787 16.7107C79.0767 15.5274 77.9129 14.4042 76.6874 13.3413M66.2449 6.48956C64.4532 5.62488 62.6064 4.87951 60.7165 4.25833M47.1665 2.00001C22.221 2.00001 1.99999 22.2211 2 47.1665C2 72.112 22.2211 92.3331 47.1665 92.3331" stroke="black" stroke-width="3.5" stroke-linecap="round" stroke-linejoin="round"/>
<path d="M47.166 53.9415C48.9629 53.9415 50.6861 53.2277 51.9567 51.9571C53.2272 50.6866 53.941 48.9633 53.941 47.1665C53.941 45.3697 53.2272 43.6464 51.9567 42.3759C50.6861 41.1053 48.9629 40.3915 47.166 40.3915M47.166 53.9415C45.3692 53.9415 43.646 53.2277 42.3754 51.9571C41.1049 50.6866 40.3911 48.9633 40.3911 47.1665C40.3911 45.3697 41.1049 43.6464 42.3754 42.3759C43.646 41.1053 45.3692 40.3915 47.166 40.3915M47.166 53.9415V65.2331M47.166 40.3915V20.0666" stroke="black" stroke-width="3.5" stroke-linecap="round" stroke-linejoin="round"/>
</svg>
