<svg width="115" height="99" viewBox="0 0 115 99" fill="none" xmlns="http://www.w3.org/2000/svg">
<path d="M30.625 36.375L56.2638 13.4506C63.2298 7.23175 66.7074 4.125 70.9375 4.125C75.1676 4.125 78.6506 7.23175 85.6112 13.4506L111.25 36.375M38.6875 31V95.5M103.188 95.5V31" stroke="#7D886E" stroke-width="6.5" stroke-linecap="round" stroke-linejoin="round"/>
<path d="M11.8125 63.25C16.2653 63.25 19.875 58.4371 19.875 52.5C19.875 46.5629 16.2653 41.75 11.8125 41.75C7.3597 41.75 3.75 46.5629 3.75 52.5C3.75 58.4371 7.3597 63.25 11.8125 63.25Z" stroke="#7D886E" stroke-width="6.5" stroke-linecap="round" stroke-linejoin="round"/>
<path d="M11.8125 63.25V95.5M3.75 95.5H111.25M57.5 95.5V74C57.5 68.9314 57.5 66.3998 59.0749 64.8249C60.6498 63.25 63.1814 63.25 68.25 63.25H73.625C78.6936 63.25 81.2253 63.25 82.8001 64.8249C84.375 66.3998 84.375 68.9314 84.375 74V95.5M65.5625 47.125H76.3125M65.5625 31H76.3125" stroke="#7D886E" stroke-width="6.5" stroke-linecap="round" stroke-linejoin="round"/>
</svg>
