<svg width="155" height="51" viewBox="0 0 155 51" fill="none" xmlns="http://www.w3.org/2000/svg">
<path fill-rule="evenodd" clip-rule="evenodd" d="M1.61446 9.99816C2.70113 11.0803 8.12541 14.3312 9.20754 17.5822C10.2942 20.8286 12.4675 41.6111 18.9785 47.0309C25.6932 52.6091 51.0216 50.5308 55.8708 48.1175C66.7239 42.7068 68.0551 25.2296 69.9748 17.5777C71.057 13.2446 77.5679 13.2446 77.5679 13.2446C77.5679 13.2446 84.0789 13.2446 85.1655 17.5731C87.0853 25.2296 88.4255 42.7566 99.2696 48.1583C104.123 50.5806 129.452 52.6589 136.175 47.0807C142.677 41.6609 144.846 20.8241 145.933 17.5731C147.01 14.3267 152.444 11.0758 153.526 9.99363C154.617 8.91149 154.617 4.57841 153.526 3.49174C151.357 1.32746 125.753 -0.601372 98.1829 2.4096C92.6816 3.0118 90.5898 4.57388 77.5634 4.57388C64.546 4.57388 62.4452 3.00727 56.9484 2.4096C29.3969 -0.596844 3.78779 1.33199 1.61446 3.49627C0.532322 4.57841 0.532322 8.91602 1.61446 9.99816Z" fill="#7D886E"/>
</svg>
